{"title":"[IFA1] Samurai Deeper Kyo [m480p] [Triple Audio] [Animax Dub]","uid":8951329,"size":127872041,"categoryP":"video","categoryS":"tv_shows","magnet":"?xt=urn:btih:93bd09598d9b161a9610cd51e930457649da18e6&amp;dn=%5BIFA1%5D+Samurai+Deeper+Kyo+%5Bm480p%5D+%5BTriple+Audio%5D+%5BAnimax+Dub%5D&amp;tr=udp%3A%2F%2Ftracker.openbittorrent.com%3A80&amp;tr=udp%3A%2F%2Fopen.demonii.com%3A1337&amp;tr=udp%3A%2F%2Ftracker.coppersurfer.tk%3A6969&amp;tr=udp%3A%2F%2Fexodus.desync.com%3A6969","seeders":1,"leechers":0,"uploader":"IFA1","files":2,"time":1379891462,"description":"Samurai Deeper Kyo (English Dub)\n\nPlot Summary: In the year 1600, during the battle of Sekigahara, warriors Kyoshiro Mibu and &quot;Demon Eyes&quot; Kyo - the legendary slayer of a thousand men - engaged in fierce combat. Both men disappeared when a meteor crashed in the battlegrounds. Four years later, Kyoshiro is spotted on a rural highway, acting as a traveling medicine salesman. He is captured by the female bounty hunter Yuya Shiina when she discovers that deep inside him is the dormant personality of &quot;Demon Eyes&quot; Kyo himself.\n\n\nInfo :\n\nType: TV Series\nAverage File Size: ~120 MB\nVideo: h264/AVC\nContainer: MKV\nAudio 1: English (Animax)\nAudio 2: English\nAudio 3: Japanese\nAnimax Audio recorded by : Anime-Guru\nAnimax Audio timed by : Inuyashakagomefa1\n\nFan-Sub (used for adding Animax Audio): Arigatou\n\nSource: AnimeIndia.com\n\nSubmitter's Note: If you liked the show then please seed as much as possible to keep this torrent alive because I am not sure if I can keep it alive by myself. Consider buying the official DVDs when they are available. Not for sale or rent.\n\n\nMediaInfo:\n\nGeneral\nUnique ID : 204868121856693409448372506805046943085 (0x9A202A40F0D7F8C882BF31C9A0DD1D6D)\nComplete name : D:[IFA1] Samurai Deeper Kyo [m480p] [Dual Audio] [Animax Dub][IFA1_Anime-Guru]-SamDepKyo-26_TA.mkv\nFormat : Matroska\nFormat version : Version 4 / Version 2\nFile size : 122 MiB\nDuration : 24mn 0s\nOverall bit rate mode : Variable\nOverall bit rate : 710 Kbps\nMovie name : AnimeIndia.com\nEncoded date : UTC 2010-02-22 21:41:31\nWriting application : mkvmerge v5.9.0 ('On The Loose') built on Dec 9 2012 15:37:01\nWriting library : libebml v1.3.0 + libmatroska v1.4.0\n\nVideo\nID : 1\nFormat : AVC\nFormat/Info : Advanced Video Codec\nFormat profile : &lt;a class=&quot;__cf_email__&quot; href=&quot;/cdn-cgi/l/email-protection&quot; data-cfemail=&quot;ade5c4cac5ede198839c&quot;&gt;[email&amp;#160;protected]&lt;/a&gt;&lt;script cf-hash='f9e31' type=&quot;text/javascript&quot;&gt;\n/* &lt;![CDATA[ */!function(){try{var t=&quot;currentScript&quot;in document?document.currentScript:function(){for(var t=document.getElementsByTagName(&quot;script&quot;),e=t.length;e--;)if(t[e].getAttribute(&quot;cf-hash&quot;))return t[e]}();if(t&amp;&amp;t.previousSibling){var e,r,n,i,c=t.previousSibling,a=c.getAttribute(&quot;data-cfemail&quot;);if(a){for(e=&quot;&quot;,r=parseInt(a.substr(0,2),16),n=2;a.length-n;n+=2)i=parseInt(a.substr(n,2),16)^r,e+=String.fromCharCode(i);e=document.createTextNode(e),c.parentNode.replaceChild(e,c)}}}catch(u){}}();/* ]]&gt; */&lt;/script&gt;\nFormat settings, CABAC : Yes\nFormat settings, ReFrames : 8 frames\nMuxing mode : Header stripping\nCodec ID : V_MPEG4/ISO/AVC\nBit rate : 296 Kbps\nNominal bit rate : 325 Kbps\nWidth : 704 pixels\nHeight : 396 pixels\nDisplay aspect ratio : 16:9\nFrame rate mode : Variable\nOriginal frame rate : 23.976 fps\nColor space : YUV\nChroma subsampling : 4:2:0\nBit depth : 8 bits\nScan type : Progressive\nBits/(Pixel*Frame) : 0.049\nWriting library : x264 core 56 svn-676\nEncoding settings : cabac=1 // deblock=1:1:1 / analyse=0x3:0x133 / me=umh / subme=7 / brdo=1 // me_range=16 / chroma_me=1 / trellis=2 / 8x8dct=1 / cqm=0 / deadzone=21,11 / chroma_qp_offset=0 / threads=6 / nr=0 / decimate=1 / mbaff=0 / bframes=5 / b_pyramid=1 / b_adapt=1 / b_bias=0 / direct=1 / wpredb=1 / bime=1 / keyint=250 / keyint_min=25 / scenecut=40(pre) / rc=2pass / bitrate=325 / ratetol=1.0 / rceq='blurCplx^(1-qComp)' / qcomp=0.60 / qpmin=10 / qpmax=51 / qpstep=4 / cplxblur=20.0 / qblur=0.5 / ip_ratio=1.40 / pb_ratio=1.30\nDefault : Yes\nForced : No\n\nAudio #1\nID : 2\nFormat : MPEG Audio\nFormat version : Version 1\nFormat profile : Layer 3\nMuxing mode : Header stripping\nCodec ID : A_MPEG/L3\nCodec ID/Hint : MP3\nDuration : 24mn 0s\nBit rate mode : Constant\nBit rate : 224 Kbps\nChannel(s) : 2 channels\nSampling rate : 44.1 KHz\nCompression mode : Lossy\nStream size : 38.5 MiB (32%)\nTitle : Animax Dub, Recorded by Anime-Guru, Synced by IFA1\nLanguage : English\nDefault : Yes\nForced : No\n\nAudio #2\nID : 3\nFormat : Vorbis\nFormat settings, Floor : 1\nCodec ID : A_VORBIS\nDuration : 24mn 0s\nBit rate mode : Variable\nBit rate : 88.0 Kbps\nChannel(s) : 2 channels\nSampling rate : 48.0 KHz\nCompression mode : Lossy\nStream size : 15.1 MiB (12%)\nWriting library : libVorbis 1.0 (UTC 2002-07-17)\nLanguage : English\nDefault : No\nForced : No\n\nAudio #3\nID : 4\nFormat : Vorbis\nFormat settings, Floor : 1\nCodec ID : A_VORBIS\nDuration : 24mn 0s\nBit rate mode : Variable\nBit rate : 88.0 Kbps\nChannel(s) : 2 channels\nSampling rate : 48.0 KHz\nCompression mode : Lossy\nStream size : 15.1 MiB (12%)\nWriting library : libVorbis 1.0 (UTC 2002-07-17)\nLanguage : Japanese\nDefault : No\nForced : No\n\nText\nID : 5\nFormat : SSA\nCodec ID : S_TEXT/SSA\nCodec ID/Info : Sub Station Alpha\nCompression mode : Lossless\nLanguage : English\nDefault : No\nForced : No ","torrent":{"xt":"urn:btih:93bd09598d9b161a9610cd51e930457649da18e6","amp;dn":"%5BIFA1%5D+Samurai+Deeper+Kyo+%5Bm480p%5D+%5BTriple+Audio%5D+%5BAnimax+Dub%5D","amp;tr":["udp%3A%2F%2Ftracker.openbittorrent.com%3A80","udp%3A%2F%2Fopen.demonii.com%3A1337","udp%3A%2F%2Ftracker.coppersurfer.tk%3A6969","udp%3A%2F%2Fexodus.desync.com%3A6969"],"infoHash":"93bd09598d9b161a9610cd51e930457649da18e6","infoHashBuffer":{"type":"Buffer","data":[147,189,9,89,141,155,22,26,150,16,205,81,233,48,69,118,73,218,24,230]},"announce":[],"urlList":[]}}